{
  "accessors": [
    {
      "bufferView": 2,
      "componentType": 5126,
      "count": 4577,
      "max": [
        108.8369140625,
        267.0380859375,
        102.37895965576172
      ],
      "min": [
        -108.83683776855469,
        106.45188140869141,
        -108.83686065673828
      ],
      "type": "VEC3"
    },
    {
      "bufferView": 2,
      "byteOffset": 54924,
      "componentType": 5126,
      "count": 4577,
      "max": [
        0.99900025129318237,
        1,
        0.87198424339294434
      ],
      "min": [
        -0.99900037050247192,
        -1,
        -0.99900025129318237
      ],
      "type": "VEC3"
    },
    {
      "bufferView": 3,
      "componentType": 5126,
      "count": 4577,
      "max": [
        1,
        0.99999463558197021,
        1,
        1
      ],
      "min": [
        -1,
        -0.10275956243276596,
        -1,
        -1
      ],
      "type": "VEC4"
    },
    {
      "bufferView": 0,
      "componentType": 5125,
      "count": 24588,
      "max": [
        4576
      ],
      "min": [
        0
      ],
      "type": "SCALAR"
    },
    {
      "bufferView": 2,
      "byteOffset": 109848,
      "componentType": 5126,
      "count": 7100,
      "max": [
        55.214832305908203,
        55.513942718505859,
        24.008735656738281
      ],
      "min": [
        -55.214805603027344,
        -42.722881317138672,
        -48.370903015136719
      ],
      "type": "VEC3"
    },
    {
      "bufferView": 2,
      "byteOffset": 195048,
      "componentType": 5126,
      "count": 7100,
      "max": [
        0.98086512088775635,
        0.9999687671661377,
        0.99998646974563599
      ],
      "min": [
        -0.98139530420303345,
        -0.98349469900131226,
        -0.26967564225196838
      ],
      "type": "VEC3"
    },
    {
      "bufferView": 3,
      "byteOffset": 73232,
      "componentType": 5126,
      "count": 7100,
      "max": [
        1,
        0.2003350555896759,
        0.97980993986129761,
        -1
      ],
      "min": [
        -1,
        -0.20575129985809326,
        -0.98084431886672974,
        -1
      ],
      "type": "VEC4"
    },
    {
      "bufferView": 0,
      "byteOffset": 98352,
      "componentType": 5125,
      "count": 38904,
      "max": [
        7099
      ],
      "min": [
        0
      ],
      "type": "SCALAR"
    },
    {
      "bufferView": 2,
      "byteOffset": 280248,
      "componentType": 5126,
      "count": 4475,
      "max": [
        106.38809204101562,
        265.088134765625,
        106.38808441162109
      ],
      "min": [
        -106.38801574707031,
        108.11510467529297,
        -106.38803863525391
      ],
      "type": "VEC3"
    },
    {
      "bufferView": 2,
      "byteOffset": 333948,
      "componentType": 5126,
      "count": 4475,
      "max": [
        0.99899756908416748,
        1,
        0.99899756908416748
      ],
      "min": [
        -0.99899756908416748,
        -1,
        -0.99899756908416748
      ],
      "type": "VEC3"
    },
    {
      "bufferView": 3,
      "byteOffset": 186832,
      "componentType": 5126,
      "count": 4475,
      "max": [
        1,
        0.99835801124572754,
        0.99999940395355225,
        1
      ],
      "min": [
        -0.0018850945634767413,
        -0.99882817268371582,
        -0.99999934434890747,
        -1
      ],
      "type": "VEC4"
    },
    {
      "bufferView": 1,
      "componentType": 5126,
      "count": 4475,
      "max": [
        1.0319403409957886,
        1.6277769804000854
      ],
      "min": [
        -0.031940329819917679,
        0.84291195869445801
      ],
      "type": "VEC2"
    },
    {
      "bufferView": 0,
      "byteOffset": 253968,
      "componentType": 5125,
      "count": 25200,
      "max": [
        4474
      ],
      "min": [
        0
      ],
      "type": "SCALAR"
    },
    {
      "bufferView": 2,
      "byteOffset": 387648,
      "componentType": 5126,
      "count": 8761,
      "max": [
        104.86080932617188,
        106.95999908447266,
        106.38202667236328
      ],
      "min": [
        -104.86111450195312,
        -149.15252685546875,
        -106.38202667236328
      ],
      "type": "VEC3"
    },
    {
      "bufferView": 2,
      "byteOffset": 492780,
      "componentType": 5126,
      "count": 8761,
      "max": [
        0.99989879131317139,
        1,
        0.99997848272323608
      ],
      "min": [
        -0.99994194507598877,
        -0.9971272349357605,
        -0.99997836351394653
      ],
      "type": "VEC3"
    },
    {
      "bufferView": 3,
      "byteOffset": 258432,
      "componentType": 5126,
      "count": 8761,
      "max": [
        1,
        0.99999994039535522,
        1,
        1
      ],
      "min": [
        -1,
        -0.16681504249572754,
        -1,
        -1
      ],
      "type": "VEC4"
    },
    {
      "bufferView": 0,
      "byteOffset": 354768,
      "componentType": 5125,
      "count": 48696,
      "max": [
        8760
      ],
      "min": [
        0
      ],
      "type": "SCALAR"
    },
    {
      "bufferView": 2,
      "byteOffset": 597912,
      "componentType": 5126,
      "count": 11474,
      "max": [
        91.052482604980469,
        97.85205078125,
        91.032546997070312
      ],
      "min": [
        -91.052581787109375,
        -97.85205078125,
        -91.032577514648438
      ],
      "type": "VEC3"
    },
    {
      "bufferView": 2,
      "byteOffset": 735600,
      "componentType": 5126,
      "count": 11474,
      "max": [
        0.99998337030410767,
        1,
        0.999764084815979
      ],
      "min": [
        -0.99998331069946289,
        -1,
        -0.999764084815979
      ],
      "type": "VEC3"
    },
    {
      "bufferView": 3,
      "byteOffset": 398608,
      "componentType": 5126,
      "count": 11474,
      "max": [
        1,
        0.010553154163062572,
        1,
        1
      ],
      "min": [
        -1,
        -0.010427441447973251,
        -1,
        1
      ],
      "type": "VEC4"
    },
    {
      "bufferView": 0,
      "byteOffset": 549552,
      "componentType": 5125,
      "count": 66600,
      "max": [
        11473
      ],
      "min": [
        0
      ],
      "type": "SCALAR"
    },
    {
      "bufferView": 2,
      "byteOffset": 873288,
      "componentType": 5126,
      "count": 11474,
      "max": [
        91.052513122558594,
        97.85205078125,
        91.032585144042969
      ],
      "min": [
        -91.05255126953125,
        -97.85205078125,
        -91.032539367675781
      ],
      "type": "VEC3"
    },
    {
      "bufferView": 2,
      "byteOffset": 1010976,
      "componentType": 5126,
      "count": 11474,
      "max": [
        0.99998337030410767,
        1,
        0.999764084815979
      ],
      "min": [
        -0.99998337030410767,
        -1,
        -0.999764084815979
      ],
      "type": "VEC3"
    },
    {
      "bufferView": 3,
      "byteOffset": 582192,
      "componentType": 5126,
      "count": 11474,
      "max": [
        1,
        0.010552925989031792,
        1,
        1
      ],
      "min": [
        -1,
        -0.010427586734294891,
        -1,
        1
      ],
      "type": "VEC4"
    },
    {
      "bufferView": 0,
      "byteOffset": 815952,
      "componentType": 5125,
      "count": 66600,
      "max": [
        11473
      ],
      "min": [
        0
      ],
      "type": "SCALAR"
    }
  ],
  "asset": {
    "extras": {
      "author": "The X-EOM (https://sketchfab.com/x-eom)",
      "license": "CC-BY-4.0 (http://creativecommons.org/licenses/by/4.0/)",
      "source": "https://sketchfab.com/models/91ba6b0cdb9d45da9cb7c014d348aff3",
      "title": "Wall-E Eve"
    },
    "generator": "Sketchfab-3.20.7",
    "version": "2.0"
  },
  "bufferViews": [
    {
      "buffer": 0,
      "byteLength": 1082352,
      "byteOffset": 0,
      "name": "floatBufferViews",
      "target": 34963
    },
    {
      "buffer": 0,
      "byteLength": 35800,
      "byteOffset": 1082352,
      "byteStride": 8,
      "name": "floatBufferViews",
      "target": 34962
    },
    {
      "buffer": 0,
      "byteLength": 1148664,
      "byteOffset": 1118152,
      "byteStride": 12,
      "name": "floatBufferViews",
      "target": 34962
    },
    {
      "buffer": 0,
      "byteLength": 765776,
      "byteOffset": 2266816,
      "byteStride": 16,
      "name": "floatBufferViews",
      "target": 34962
    }
  ],
  "buffers": [
    {
      "byteLength": 3032592,
      "uri": "scene.bin"
    }
  ],
  "images": [
    {
      "uri": "textures/face4_emissive.png"
    },
    {
      "uri": "textures/face4_baseColor.png"
    }
  ],
  "materials": [
    {
      "doubleSided": true,
      "emissiveFactor": [
        0,
        0,
        0
      ],
      "name": "RootNode",
      "pbrMetallicRoughness": {
        "baseColorFactor": [
          1,
          1,
          1,
          1
        ],
        "metallicFactor": 0,
        "roughnessFactor": 0.59999999999999998
      }
    },
    {
      "doubleSided": true,
      "emissiveFactor": [
        0.22,
        0.22,
        0.22
      ],
      "name": "body",
      "pbrMetallicRoughness": {
        "baseColorFactor": [
          0.67513953950000005,
          0.67513953950000005,
          0.67513953950000005,
          1
        ],
        "metallicFactor": 0,
        "roughnessFactor": 0.59999999999999998
      }
    },
    {
      "doubleSided": true,
      "emissiveFactor": [
        0,
        0,
        0
      ],
      "name": "face_frame",
      "pbrMetallicRoughness": {
        "baseColorFactor": [
          0.17600000000000002,
          0.17600000000000002,
          0.17600000000000002,
          1
        ],
        "metallicFactor": 0,
        "roughnessFactor": 0.59999999999999998
      }
    },
    {
      "doubleSided": true,
      "emissiveFactor": [
        1,
        1,
        1
      ],
      "emissiveTexture": {
        "index": 0,
        "texCoord": 0
      },
      "name": "face4",
      "pbrMetallicRoughness": {
        "baseColorFactor": [
          1,
          1,
          1,
          1
        ],
        "baseColorTexture": {
          "index": 1,
          "texCoord": 0
        },
        "metallicFactor": 0,
        "roughnessFactor": 0.59999999999999998
      }
    }
  ],
  "meshes": [
    {
      "name": "head_2_body_0",
      "primitives": [
        {
          "attributes": {
            "NORMAL": 1,
            "POSITION": 0,
            "TANGENT": 2
          },
          "indices": 3,
          "material": 1,
          "mode": 4
        }
      ]
    },
    {
      "name": "face_frame_face frame_0",
      "primitives": [
        {
          "attributes": {
            "NORMAL": 5,
            "POSITION": 4,
            "TANGENT": 6
          },
          "indices": 7,
          "material": 2,
          "mode": 4
        }
      ]
    },
    {
      "name": "face_face4_1",
      "primitives": [
        {
          "attributes": {
            "NORMAL": 9,
            "POSITION": 8,
            "TANGENT": 10,
            "TEXCOORD_0": 11
          },
          "indices": 12,
          "material": 3,
          "mode": 4
        }
      ]
    },
    {
      "name": "body__0",
      "primitives": [
        {
          "attributes": {
            "NORMAL": 14,
            "POSITION": 13,
            "TANGENT": 15
          },
          "indices": 16,
          "material": 0,
          "mode": 4
        }
      ]
    },
    {
      "name": "left_arm_body_0",
      "primitives": [
        {
          "attributes": {
            "NORMAL": 18,
            "POSITION": 17,
            "TANGENT": 19
          },
          "indices": 20,
          "material": 1,
          "mode": 4
        }
      ]
    },
    {
      "name": "right_arm_body_0",
      "primitives": [
        {
          "attributes": {
            "NORMAL": 22,
            "POSITION": 21,
            "TANGENT": 23
          },
          "indices": 24,
          "material": 1,
          "mode": 4
        }
      ]
    }
  ],
  "nodes": [
    {
      "children": [
        1
      ],
      "name": "RootNode (gltf orientation matrix)",
      "rotation": [
        -0.70710678118654746,
        -0,
        -0,
        0.70710678118654757
      ]
    },
    {
      "children": [
        2
      ],
      "name": "RootNode (model correction matrix)"
    },
    {
      "children": [
        3
      ],
      "matrix": [
        1,
        0,
        0,
        0,
        0,
        0,
        1,
        0,
        0,
        -1,
        0,
        0,
        0,
        0,
        0,
        1
      ],
      "name": "fc332855577b493798cae42e0c9b69dc.fbx"
    },
    {
      "children": [
        4,
        6,
        16
      ],
      "name": "RootNode"
    },
    {
      "children": [
        5
      ],
      "matrix": [
        0.14765286077406081,
        -0.15815817363294121,
        -0.97631174571359536,
        0,
        0.023650172840425074,
        0.98741378971183724,
        -0.15637991306918417,
        0,
        0.98875644221914116,
        3.0531133177191805e-16,
        0.14953493896125469,
        0,
        -111.81940460205078,
        203.22285461425781,
        836.00262451171875,
        1
      ],
      "name": "CINEMA_4D_Editor"
    },
    {
      "name": ""
    },
    {
      "children": [
        7,
        10,
        13
      ],
      "name": "area"
    },
    {
      "children": [
        8
      ],
      "matrix": [
        1,
        0,
        0,
        0,
        0,
        2.2204460492503131e-16,
        1,
        0,
        0,
        -1,
        2.2204460492503131e-16,
        0,
        -596.87445068359375,
        983.790283203125,
        -1432.35302734375,
        1
      ],
      "name": "Light"
    },
    {
      "children": [
        9
      ],
      "matrix": [
        1,
        0,
        0,
        0,
        0,
        2.2204460492503131e-16,
        1,
        0,
        0,
        -1,
        2.2204460492503131e-16,
        0,
        0,
        0,
        0,
        1
      ],
      "name": ""
    },
    {
      "name": ""
    },
    {
      "children": [
        11
      ],
      "matrix": [
        1,
        0,
        0,
        0,
        0,
        2.2204460492503131e-16,
        1,
        0,
        0,
        -1,
        2.2204460492503131e-16,
        0,
        -498.2623291015625,
        200.7733154296875,
        895.22021484375,
        1
      ],
      "name": "Light_2"
    },
    {
      "children": [
        12
      ],
      "matrix": [
        1,
        0,
        0,
        0,
        0,
        2.2204460492503131e-16,
        1,
        0,
        0,
        -1,
        2.2204460492503131e-16,
        0,
        0,
        0,
        0,
        1
      ],
      "name": ""
    },
    {
      "name": ""
    },
    {
      "children": [
        14
      ],
      "matrix": [
        1,
        0,
        0,
        0,
        0,
        2.2204460492503131e-16,
        1,
        0,
        0,
        -1,
        2.2204460492503131e-16,
        0,
        358.46441650390625,
        509.462646484375,
        261.75677490234375,
        1
      ],
      "name": "Light_3"
    },
    {
      "children": [
        15
      ],
      "matrix": [
        1,
        0,
        0,
        0,
        0,
        2.2204460492503131e-16,
        1,
        0,
        0,
        -1,
        2.2204460492503131e-16,
        0,
        0,
        0,
        0,
        1
      ],
      "name": ""
    },
    {
      "name": ""
    },
    {
      "children": [
        17
      ],
      "matrix": [
        1.0000001192092896,
        0,
        0,
        0,
        0,
        1.0000001192092896,
        0,
        0,
        0,
        0,
        1.0000001192092896,
        0,
        0,
        3.637978807091713e-12,
        0,
        1
      ],
      "name": "eve_"
    },
    {
      "children": [
        18,
        32,
        34,
        36
      ],
      "matrix": [
        1,
        0,
        0,
        0,
        0,
        1,
        8.8817836676056623e-16,
        0,
        0,
        -8.8817836676056623e-16,
        1,
        0,
        0.00011926495062652975,
        44.280986785888672,
        1.4185432195663452,
        1
      ],
      "name": "open"
    },
    {
      "children": [
        19,
        21,
        23,
        25
      ],
      "matrix": [
        1,
        0,
        0,
        0,
        0,
        0.99999999999998468,
        1.7484555314695087e-07,
        0,
        0,
        -1.7484555314695087e-07,
        0.99999999999998468,
        0,
        -0.00010400616156402975,
        132.84298706054688,
        -1.4185583591461182,
        1
      ],
      "name": "head"
    },
    {
      "children": [
        20
      ],
      "matrix": [
        1,
        0,
        0,
        0,
        0,
        1,
        2.6469779601696891e-23,
        0,
        0,
        -2.6469779601696891e-23,
        1,
        0,
        -1.5258790881489404e-05,
        -177.12425231933594,
        -9.0949470177292824e-13,
        1
      ],
      "name": "head_2"
    },
    {
      "mesh": 0,
      "name": "head_2_body_0"
    },
    {
      "children": [
        22
      ],
      "matrix": [
        1.3174819946289062,
        0,
        0,
        0,
        0,
        1.003798246383667,
        -2.646977960169688e-23,
        0,
        0,
        2.3363483865776986e-23,
        0.88599997758865356,
        0,
        -1.52587890625e-05,
        -2.3571031093597412,
        81.107223510742188,
        1
      ],
      "name": "face_frame"
    },
    {
      "mesh": 1,
      "name": "face_frame_face frame_0"
    },
    {
      "children": [
        24
      ],
      "matrix": [
        1,
        0,
        0,
        0,
        0,
        1,
        2.6469779601696891e-23,
        0,
        0,
        -2.6469779601696891e-23,
        1,
        0,
        -1.5258790881489404e-05,
        -177.12425231933594,
        -9.0949470177292824e-13,
        1
      ],
      "name": "face"
    },
    {
      "mesh": 2,
      "name": "face_face4_1"
    },
    {
      "children": [
        26,
        29
      ],
      "matrix": [
        1,
        0,
        0,
        0,
        0,
        1,
        2.6469779601696891e-23,
        0,
        0,
        -2.6469779601696891e-23,
        1,
        0,
        -293.29052734375,
        152.67291259765625,
        284.12631225585938,
        1
      ],
      "name": "blush_effect"
    },
    {
      "children": [
        27
      ],
      "matrix": [
        0.72227139796259032,
        -1.8312319605140459e-08,
        0.69160973654595481,
        0,
        -0.60099291425074197,
        0.49485256086703333,
        0.6276372041424404,
        0,
        -0.34224486074383309,
        -0.86897695194023339,
        0.35741783991722564,
        0,
        -206.70951843261719,
        170.20289611816406,
        215.873779296875,
        1
      ],
      "name": "Light_4"
    },
    {
      "children": [
        28
      ],
      "matrix": [
        1,
        0,
        0,
        0,
        0,
        2.2204460492503131e-16,
        1,
        0,
        0,
        -1,
        2.2204460492503131e-16,
        0,
        0,
        0,
        0,
        1
      ],
      "name": ""
    },
    {
      "name": ""
    },
    {
      "children": [
        30
      ],
      "matrix": [
        0.81168912532212723,
        -1.4660586866721559e-07,
        -0.58408968817620677,
        0,
        0.48975227728522475,
        0.54492045205504247,
        0.68059156963870748,
        0,
        0.31828227920074936,
        -0.83848793082923156,
        0.4423060241722731,
        0,
        687.5775146484375,
        175.47880554199219,
        215.87384033203125,
        1
      ],
      "name": "Light_2_2"
    },
    {
      "children": [
        31
      ],
      "matrix": [
        1,
        0,
        0,
        0,
        0,
        2.2204460492503131e-16,
        1,
        0,
        0,
        -1,
        2.2204460492503131e-16,
        0,
        0,
        0,
        0,
        1
      ],
      "name": ""
    },
    {
      "name": ""
    },
    {
      "children": [
        33
      ],
      "matrix": [
        1,
        0,
        0,
        0,
        0,
        1,
        0,
        0,
        0,
        0,
        1,
        0,
        -0.00011926495062652975,
        -44.280982971191406,
        -1.4185431003570557,
        1
      ],
      "name": "body"
    },
    {
      "mesh": 3,
      "name": "body__0"
    },
    {
      "children": [
        35
      ],
      "matrix": [
        0.1756901741027832,
        0,
        0,
        0,
        0,
        1.0072077512740936,
        1.7610579640541803e-07,
        0,
        0,
        -5.837398500336085e-08,
        0.33386027812957253,
        0,
        -115.38112640380859,
        -44.280990600585938,
        1.4184783697128296,
        1
      ],
      "name": "left_arm"
    },
    {
      "mesh": 4,
      "name": "left_arm_body_0"
    },
    {
      "children": [
        37
      ],
      "matrix": [
        0.1756901741027832,
        0,
        0,
        0,
        0,
        1.0072076320648189,
        3.0017122983822623e-08,
        0,
        0,
        -9.9498095669750062e-09,
        0.33386024832725508,
        0,
        115.38134765625,
        -44.280986785888672,
        1.4186230897903442,
        1
      ],
      "name": "right_arm"
    },
    {
      "mesh": 5,
      "name": "right_arm_body_0"
    }
  ],
  "samplers": [
    {
      "magFilter": 9729,
      "minFilter": 9987,
      "wrapS": 33071,
      "wrapT": 33071
    },
    {
      "magFilter": 9729,
      "minFilter": 9987,
      "wrapS": 10497,
      "wrapT": 10497
    }
  ],
  "scene": 0,
  "scenes": [
    {
      "name": "OSG_Scene",
      "nodes": [
        0
      ]
    }
  ],
  "textures": [
    {
      "sampler": 0,
      "source": 0
    },
    {
      "sampler": 1,
      "source": 1
    }
  ]
}

